<?xml version="1.0" encoding="UTF-8"?>
<svg id="Layer_1" xmlns="http://www.w3.org/2000/svg" version="1.1" viewBox="0 0 1024 1024">
  <!-- Generator: Adobe Illustrator 29.7.1, SVG Export Plug-In . SVG Version: 2.1.1 Build 8)  -->
  <defs>
    <style>
      .st0 {
        fill: #0077b6;
        fill-rule: evenodd;
      }
    </style>
  </defs>
  <path class="st0" d="M163.48,350.61c-8.11,1.12-16.43,8.21-21.74,14.21-7.36,5.95-14.52,17.28-7.5,26.03,4.88,7.02,12.24,12.46,19.77,16.35,19.19,9.84,18.19-19.56,16.18-31.02-.13-2.63-1.05-5.37-.54-8.01.62-2.05,3.15-1.92,4.14-.26,2.34,4.32,2.63,9.67,3.84,14.37,3.3,14.93-4.02,41.7-23.91,31.6-4.22-1.99-2.54,4.05-3.97,6.29-1.9,6-4.04,12.06-7.52,17.36-6.99,10.15-15.52,19.16-23.54,28.47-12.71,14.33-24.14,31.34-24.36,51.17-.02,12.03-.06,26.22,10.54,34.2,7.42,6.09,17.53,4,26.39,4.5,9.33,1.58,18.97.48,28.36.79,2.71-.05,6.33.39,8.37-1.55,4.9-6.38-4.45-13.6-10.52-14.17-3.06-.35-6.04-.98-9.16-.94-3.04-.24-15.46,1.46-7.51-3.81,2.59-1.26,5.62-.96,8.17-2.27,2.99-2.13,5.82-5.41,8.16-8.04,12.03-15.09,10.07-40.68-12.42-42.93-8.77-.62-13.47.86-20.61,5.68-.82.29-1.64.06-1.66-.84.99-3.26,5.65-4.96,8.39-6.74,9.93-4.96,22.69-4.88,31.53,2.31,5.55,5.24,8.25,12.58,10.63,19.69,2.87,9.44,6.02,18.85,8.57,28.4,1.4,5.34,2.66,10.47,4.41,15.72.94,2.58,1.66,5.53,3.7,7.43,5.4,3.34,12.44,1.68,18.52,2.08,10.58.88,11.67-4.21,6.69-12.47-2.53-4.24-9.29-3.99-10.25-9.4-3.21-12.62-4.78-25.54-4.26-38.57.03-2.31-.35-4.79.1-6.97,2.08-6.16,4.52-1.86,4.8,2.14,1.57,9.24-2.35,22.25,9.63,8.26,20.28-22.38,13.62-41.04,7.11-67.21-1.52-4.57-1.67,3.12-1.75,4.26.35,2.69.29,5.47.38,8.16.02.9.38,2.57-.56,2.99-4.54-1.77-9.68-11.95-11.6-16.66-1.69-3.99.53-8.89,4.85-9.8,3.75-.89,7.62.18,11.38.17,13.36-.69,23.24-.75,31.4-13.29,4.84-7.32,10.4-23.78,3.76-30.96-5.37-4.66-16.89-1.05-23.97-2.63-13.3-2.26-13.74-11.1-22.22-17.92-11.03-7.94-26.32-7.75-38.71-3.4-3.98,1.19-5.12-3.76-11.43-2.75h-.07ZM205.08,372.32c2.07-.33,4.69-.07,5.75,2.02,1.01,1.99,2.05,4.04.96,6.26-.82,2.12-2.73,3.81-4.86,4.54-1.81.6-3.69-.78-5-1.97-1.64-1.93-1.64-4.93-1.04-7.31.48-1.91,2.14-3.28,4.1-3.53h.07ZM248.54,377.04c4.18-.71,9.38,1.05,11,5.26.43,1.26.19,2.52.02,3.8-.22,1.35-.4,2.72-.85,4.06-.58,2.12-1.08,4.39-1.9,6.39-1.96,5.58-5.46,10.65-10.08,14.37-2.73,2.09-5.99,3.64-9.34,4.49-2.33.55-4.74,1.48-7.2,1.08-1.48-.27-2.94-.55-4.05-1.48-1.2-.98-.85-2.49.84-2.88,2.04-.34,4.27.06,6.35-.22,2.37-.28,4.85-1.05,6.89-2.19,1.95-.97,3.33-2.48,4.91-3.98,2.94-2.58,5.18-5.95,6.71-9.51,1.58-3.49-1.04-4.01-3.61-5.28-.93-.51-1.77-1.16-2.52-1.9-1.83-1.79-2.82-4.22-2.69-6.84.04-1.4.45-2.64,1.33-3.4,1.14-.99,2.62-1.5,4.11-1.74h.07ZM88.72,452.88c-1.05.25-2.04.85-3.01,1.54-2.27,1.54-4.44,3.7-6.17,5.89-1.94,2.24-3.75,4.53-5.34,7.01-2.79,3.73-4.65,7.95-5.83,12.5-.59,2.32-.74,4.7-1.13,7.02-.36,2.19-.7,4.41-.63,6.66-.04,2.14.38,4.08.61,6.12.19,1.29.23,2.61.47,3.94,1.68,8.06,5.96,15.33,12.09,20.72,2.13,2.11,4.06,4.36,6.47,6.12.57.39,1.2,1.02,1.86,1.1.28-.03.36-.34.36-.96,0-.5-.09-1.18-.14-1.89-.09-1.9-.04-3.83-.03-5.73.1-2.11.58-4.07.7-6.09.14-1.08.07-2.2.28-3.27.24-1.26.64-2.44.78-3.74.25-1.48-.05-3.01-.46-4.45-.77-2.56-1.33-5.18-1.83-7.8-.92-3.3-1.1-6.69-1.55-10.06-.19-2.1.18-4.23,0-6.34-.05-3.81.76-7.27,1.67-10.92.63-2.78,1.53-5.65,2.59-8.3.82-2.33,3.2-6.98.83-8.75-.73-.49-1.64-.56-2.52-.35h-.06ZM229.08,490.17c.13.17.37.22.45-.02-.08-.25-.32-.2-.45-.02v.05ZM228.61,491.55c-.73.76-1,2.2-1.42,3.21-.84,2.43-1.96,4.78-3.07,7.06-2.86,5.86-6.52,11.32-9.73,17-1.15,2.66.16,5.56.83,8.21,1.35,4.49,3,8.74,4.81,13.04,1.74,3.75,3.19,7.81,5.82,11.06,1.54,1.93,3.39,3.88,5.68,4.85,2.47,1.08,5.31.53,7.97.67,2.25.16,4.81-.2,7.27-.07,2.63.1,4.78.49,7.22-.25,1.17-.3,1.83-1.26,2.1-2.38.59-2.47-.39-5.14-1.73-7.18-1.62-2.58-3.93-5.06-6.46-6.84-1.24-.83-2.6-1.4-4.07-1.95-2.08-.79-4.66-.93-6.23-2.69-1.06-1.16-1.51-2.82-2.05-4.29-.86-2.5-1.5-5.18-2.16-7.86-.59-2.23-1.3-4.42-1.64-6.66-.38-1.76-.5-3.56-.8-5.3-.36-2.63-.39-5.35-.71-8-.26-2.8-.47-5.6-.68-8.42-.05-.71-.14-1.47-.31-2.15-.19-.75-.42-1.16-.64-1.07h-.02ZM405.77,425.08c-4.31,1.08-8.79,5.39-9.83,9.73-.61,4.25-.85,9,1.71,12.7,7.9,10.51,24.05,6.65,26.63-6.12,1.75-10.43-8.34-18.86-18.38-16.34l-.14.03ZM442.04,425.49c-1.39,1.7-.64,3.8-.59,5.98.2,24.26,0,48.69.07,72.99,0,7.66,0,15.32,0,22.94.01,2.82-.61,5.49-1.14,8.22-.72,3.25.45,6.57.63,9.8.15,1.27.27,2.71,1.24,3.56,1.56,1.12,3.47.99,5.47,1.12,2.41.06,4.87,0,7.32-.04,3.15-.15,5.91.29,7.18-2.32.66-1.5.56-4.09,1.54-5.24,1.89-2.02,4.44.7,5.95,2.04,5.96,6.24,13.27,7.04,21.46,6.53,9.91,1.19,19.49-3.23,26.63-9.88,10.96-10.48,13.79-20.01,15.24-34.67,0-2.52-.67-5.18-.95-7.58-.46-2.66-.66-5.38-1.5-8.02-2.1-6.58-5.75-12.57-10.2-17.77-2.85-2.99-6.02-5.27-9.62-7.56-3.8-2.16-7.92-4.05-12.29-4.54-2.74-.29-5.62.06-8.45,0-4.01-.09-7.86.23-11.73,1.51-2.72.72-5.2,2.16-7.55,3.72-1.92,1.09-4.72,4.22-6.92,3.04-1.01-.86-1.07-3.08-1.14-4.58-.07-2.12-.02-4.41-.02-6.54.01-10.27-.06-20.49.09-30.71.04-3.45-3.15-3.16-5.8-3.15-2.96.02-6.08-.08-9.07-.07-1.84.01-4.84.11-5.8,1.15l-.06.06ZM545.41,425.9c-1.61,2.49-.45,6.04-.6,8.9-.17,8.78-.07,17.27-.81,26.03.42,7.33,1.17,14.74.76,22.13-.4,4.75.02,9.76,0,14.66-.25,3.98-.46,8.01-.26,11.91.41,4.39-.39,8.59-.2,12.97.2,4.28.65,8.56.51,12.91.53,3.71-1.93,11.29.75,13.46,2.25,1.77,7.51,1.03,11.03,1.2,2.95-.08,6.51.51,9.03-1.25,1.63-1.25,2.15-3.91,3.25-4.62,2.22-1.12,4.72,1.96,6.93,3.1,5.22,3.63,10.94,4.36,17.39,3.73,3.18.03,6.76.13,9.67-.46,8.01-1.55,15.02-6.09,20.38-12.06,3.37-3.75,5.2-8.25,7.55-12.57,1.31-2.34,2.3-4.8,2.66-7.47.4-4.83,2.07-9.48,1.54-14.46-.76-4.47-.99-8.51-2.04-12.86-4.35-13.78-15.09-26.32-29.61-29.4-9.16-2.15-21.65-.93-29.39,4.94-4.77,4.13-6.32,2.79-6.29-3.15,0-10.91.02-21.81-.01-32.69-.03-1.53-.2-3.28-.99-4.48-2.02-2.91-6.31-1.87-9.99-2.1-3.44.19-8.86-.92-11.19,1.54l-.06.08ZM710.65,425.99c-1.23,1.3-1.16,3.61-1.19,5.41,0,10.47,0,20.93,0,31.42.06,6.09-2.14,7.21-6.59,2.99-5.04-4.51-11.3-5.24-17.85-4.81-3.08,0-6.23-.44-9.09-.08-14.59,2.42-27.34,16.38-31.17,30.27-1.3,5.4-1.86,10.46-1.65,15.99-.18,8.46,1.36,16.91,5.55,24.27,1.94,3.07,3.83,5.89,6.25,8.44,2.05,2.05,4.4,3.63,6.68,5.27,3.97,3.1,8.54,5.53,13.83,6.14,2.59.27,5.2-.03,7.81-.02,7,.46,11.71-.18,17.61-4,1.88-1.17,4.32-3.24,6.1-3.33,1.37-.11,1.94,1.1,2.45,2.22.51,1.12,1.06,2.35,2.11,3.07,2.2,1.56,6.68.91,9.93,1.05,1.99,0,4.06.05,6.04,0,1.69-.04,3.86-.25,4.78-1.53.97-1.16,1.02-3.42,1.03-5.09-.01-12.14,0-24.32,0-36.53,0-25.69.01-51.35,0-77.04.35-6.73-3.91-5.14-8.75-5.2-2.89,0-5.93.02-8.76-.05-1.69-.02-3.76-.13-5.03,1.07l-.07.07ZM326.75,427.63c-4.87.66-9.93.75-14.71,2.24-11.2,2.7-21.35,8.81-29.27,17.13-8.6,9.91-14.58,22.31-14.89,35.57-.23,2.64-.89,5.33-.98,7.96.13,2.98.85,5.88,1.3,8.76.76,10.62,4.83,21.23,11.79,29.35,10.01,10.54,18,18.68,32.78,21.95,5.98,1.07,11.75,1.59,17.83,1.48,6.39.6,12.47-.44,18.75-1.43,6.4-1.53,12.67-3.56,18.29-6.99,4.88-3.1,9.58-6.52,13.61-10.65,2.19-2.48,2.95-5.8,2.99-9.06.02-9.49.02-18.96,0-28.35-.06-3.65.72-9.09-3.8-10.23-14.05-.97-28.34-.08-42.46-.36-1.66.02-3.63.18-4.93,1.04-3.09,1.97-2.13,7.24-2.29,10.63.02,1.67-.12,3.4,0,5.02.26,5.38,5.36,4.29,9.77,4.42,3.02,0,6,.02,9.03,0,3.79.12,7.51-.53,9.32,2.4,1.25,2.81.91,6.41.16,9.35-1.36,5.34-14.23,10.04-19.36,10.7-3.19.54-6.4,1.58-9.61,1.31-8.27-1.1-17.12-4.27-23.58-9.77-4.5-4.32-7.69-10.33-10.15-15.94-2.42-5.58-3.42-11.76-2.61-17.88.91-6.15,2.98-12.57,6.14-17.99,4.05-6.09,9.62-11.78,16.69-14.22,4.04-1.86,8.03-3.08,12.5-2.66,5.41.26,10.66.05,15.48,2.41,4.93,1.83,8.56,5.75,12.41,9.14,4.12,2.64,7.45-2.8,10.69-4.63,1.23-.86,2.36-1.83,3.57-2.73,2.06-1.59,4.66-3.41,4.83-6.16-.05-3.48-3.8-5.7-5.95-8.11-4.81-5.43-11.57-8.85-18.41-11.09-3.58-1.06-7.32-1.39-10.97-1.97-4.55-.94-9.21-1.65-13.82-.65l-.13.02ZM783.07,460.8c-10.07.66-19.53,5.84-26.59,12.89-5.15,5.54-9.42,11.93-11.03,19.32-.69,3.97-1.78,7.86-2.09,11.95-.11,3.71.74,7.41,1.31,11.11,1.37,10.14,7.98,18.38,15.2,25.18,4.01,3.87,9.22,6.21,14.43,8.32,7.47,2.3,15.27,2.29,23.04,1.98,19.11-2.23,36.37-18.03,38.82-37.31,1.11-4.95,1.25-10.11.2-15.12-.77-6.75-3.09-13.34-7.05-19.11-5.3-7.65-12.82-13.65-21.44-17.11-7.87-2.82-16.34-2.42-24.67-2.11h-.13ZM875.25,460.38c-16.79,2.68-28.47,18.85-31.12,34.86-.42,3.36.11,7.06-.02,10.54-.13,2.87-.03,5.09.22,7.5.38,2.57.87,5.15,1.54,7.7,1.31,3.71,3.23,7.13,5.04,10.34,2.36,4.04,5.96,6.91,9.24,10.37,1.61,1.58,3.36,3.01,5.35,4.08,5.1,2.7,10.92,3.39,16.56,3.91,4.47-.19,8.76-1.13,13.21-2.18,2.59-.87,5.24-2.25,7.43-3.93,1.71-1.22,5.07-4.57,6.69-3.17,2.48,2.49-.31,9.1-1.6,11.99-2.46,6.6-8.7,10.86-15.47,12.35-3.16.94-6.57,1.85-9.79,1.42-5.71-.49-10.66-1.82-15.94-3.96-3.2-.83-7.18-4.61-10.37-2.96-1.8.96-3.1,4.24-4.35,6.64-1.07,2.37-2.71,4.75-3.13,7.3-.31,2.25,1.34,3.73,3.19,4.68,2.18,1.15,4.57,2.36,7.14,3.34,5.18,2.01,10.46,3.85,15.96,4.47,4.54.13,8.95.82,13.39.48,4.47-.52,9.2-.22,13.56-1.63,3.93-1.16,7.96-2.77,11.42-5.24,9.15-7.03,16.4-15.17,19.17-26.62.53-2.16.67-4.31.61-6.57-.72-23.1-.1-46.37-.3-69.44-.32-10.44,2.35-15.15-10.93-14.41-5.02-.09-9.11-.54-12.24,3.48-.71.66-1.45,1.26-2.4,1.37-1.44.07-2.47-.64-3.75-1.42-2.11-1.32-4.11-2.94-6.5-3.73-4.14-1.62-8.37-1.62-12.72-1.56-3.04.03-6.01-.36-8.97-.03h-.14ZM399.97,463.95c-1.21,1.34-1.38,3.78-1.37,5.72,0,20.03.17,39.18.03,58.93.12,4.38.36,8.51.11,12.89-.06,2.35-.55,6.41,1.28,7.74,1.23.82,3.88.62,6.77.59,1.91-.04,3.89-.05,5.95-.02,4.09-.03,8.32.45,8.48-4.03-.15-4.99-.06-10.31,0-15.36-.05-20.47-.07-40.97,0-61.43.05-1.89.14-4.37-1.19-5.58-.98-.86-2.18-1.04-3.51-1.15-1.93-.11-4.03-.09-5.99-.13-3.72.1-8.27-.59-10.45,1.75l-.08.08ZM788.82,479.9c4.14-.43,8.16,1.44,11.76,3.24,4.21,2.6,7.7,7.12,9.59,11.68,1.29,3,1.75,6.34,1.97,9.61.48,4.35.45,8.48-1.61,12.49-1.21,2.72-2.51,5.36-4.69,7.41-3.98,3.87-9.47,6.47-14.86,7.24-4.07.35-7.89-1.37-11.45-3.29-4.64-2.31-8.06-6.23-9.83-11.08-2.81-8.19-4.36-10.88-.99-19.43,3.55-11.04,8.71-15.38,19.98-17.86h.13ZM481.85,480.99c10.45-1.84,21.57,5.05,24.7,15.19,2.84,7.37,3.8,11.04.62,18.63-2.38,8.82-10.76,15.57-19.71,16.69-7.77.6-16.47-4.51-20.36-11.19-.98-1.68-1.59-3.51-2.14-5.45-.97-3.15-2.25-6.24-2.2-9.54.1-3.44,1.5-6.69,2.58-9.92,2.23-7.6,8.64-13.11,16.4-14.38l.13-.02ZM585.83,481.02c3.82-.89,7.86.08,11.34,1.78,4.71,1.96,8.21,5.42,10.3,10.13,1.73,3.75,2.98,7.88,3.76,11.87.4,2.8-.39,5.44-1.31,8.16-1.57,5.48-4.5,10.78-9.23,14.11-5.28,3.66-12.01,5.92-18.16,3.15-6.1-2.48-10.66-5.12-13.19-11.52-1.9-4.98-4.32-10.24-3.41-15.71,2.33-11.58,7.7-19.49,19.78-21.94l.12-.02ZM686.55,480.77c3.34-.77,7.31.62,10.5,2.2,5.32,2.31,9.92,6.5,12.26,11.78,2.13,5.32.96,11.35,1.15,16.93-.03,5.58-3.35,10.13-7.26,13.81-3.54,2.85-7.92,4.8-12.31,5.78-3.81.56-7.44-1-10.88-2.53-4.17-1.66-7.37-4.52-9.35-8.76-1.3-2.86-3.08-5.97-3.61-8.9-1.04-5.32-.16-10.71,2.11-15.64,1.67-4.1,3.32-8.25,7.12-10.49,3.19-1.65,6.69-3.29,10.15-4.13l.12-.02ZM885.82,481.08c5.81-.58,15.37,1.19,19.16,5.8,1.94,2.13,3.04,5.05,4.23,7.77,2.65,5.51,3.13,11.68,1.07,17.39-1.72,4.72-4.17,9.75-8.25,12.73-5.4,3.87-13.58,4.41-19.78,2.41-5.48-1.83-9.47-6.06-11.71-11.38-2.7-4.76-3-10.19-2.61-15.47.25-3.48,2.22-6.79,3.81-10,1.96-3.84,5.92-5.94,9.66-7.81,1.4-.71,2.77-1.19,4.3-1.42l.13-.02Z"/>
</svg>